<?xml version="1.0" standalone="no"?>
<!DOCTYPE svg PUBLIC "-//W3C//DTD SVG 20010904//EN"
 "http://www.w3.org/TR/2001/REC-SVG-20010904/DTD/svg10.dtd">
<svg version="1.0" xmlns="http://www.w3.org/2000/svg"
 width="24.000000pt" height="24.000000pt" viewBox="0 0 24.000000 24.000000"
 preserveAspectRatio="xMidYMid meet">

<g transform="translate(0.000000,24.000000) scale(0.100000,-0.100000)"
fill="#FFD700" stroke="none">
<path d="M49 191 c-41 -41 -41 -101 0 -142 65 -64 171 -20 171 71 0 91 -106
135 -171 71z m132 -10 c39 -40 39 -82 0 -122 -40 -39 -82 -39 -122 0 -20 20
-29 39 -29 61 0 43 47 90 90 90 22 0 41 -9 61 -29z"/>
<path d="M80 152 c0 -4 5 -13 11 -19 8 -8 8 -17 0 -32 -13 -23 -2 -28 17 -9 8
8 15 8 27 -2 20 -17 32 -5 15 15 -10 12 -10 18 0 30 17 20 5 32 -15 15 -12
-10 -19 -10 -27 -2 -14 14 -28 16 -28 4z"/>
</g>
</svg>
