<?xml version="1.0" standalone="no"?>
<!DOCTYPE svg PUBLIC "-//W3C//DTD SVG 20010904//EN"
 "http://www.w3.org/TR/2001/REC-SVG-20010904/DTD/svg10.dtd">
<svg version="1.0" xmlns="http://www.w3.org/2000/svg"
 width="512.000000pt" height="512.000000pt" viewBox="0 0 512.000000 512.000000"
 preserveAspectRatio="xMidYMid meet">

<g transform="translate(0.000000,512.000000) scale(0.100000,-0.100000)"
fill="#000000" stroke="none">
<path d="M1667 4869 c-57 -14 -134 -56 -183 -101 -41 -38 -114 -162 -114 -194
0 -12 191 -14 1190 -14 999 0 1190 2 1190 14 0 7 -16 45 -35 83 -43 86 -103
144 -193 186 l-67 32 -875 2 c-489 1 -892 -3 -913 -8z" fill="#FFF"/>
<path d="M1360 4320 l0 -80 215 0 c216 0 216 0 240 -25 l25 -24 0 -591 0 -591
-25 -24 c-24 -25 -24 -25 -240 -25 l-215 0 0 -400 0 -400 216 0 c257 0 279 -5
349 -75 63 -63 75 -100 75 -243 l0 -111 153 -78 c124 -64 154 -83 161 -105 21
-60 3 -77 -161 -161 l-153 -78 0 -54 0 -55 880 0 880 0 0 445 c0 369 -2 445
-14 445 -7 0 -45 16 -83 35 -86 43 -144 103 -186 193 l-32 67 0 495 0 495 32
67 c42 90 100 150 186 193 38 19 76 35 83 35 12 0 14 63 14 365 l0 365 -1200
0 -1200 0 0 -80z" fill="#FFF"/>
<path d="M669 3855 c154 -124 285 -225 291 -225 6 0 137 101 291 225 l281 225
-572 0 -572 0 281 -225z" fill="#3468C2"/>
<path d="M240 3556 l0 -436 720 0 720 0 0 436 c0 348 -3 434 -12 427 -7 -6
-163 -130 -347 -277 -255 -203 -340 -266 -361 -266 -21 0 -106 63 -361 266
-184 147 -340 271 -346 277 -10 7 -13 -79 -13 -427z" fill="#3468C2"/>
<path d="M3760 3507 c-49 -16 -133 -102 -148 -153 -9 -30 -12 -164 -12 -474 0
-310 3 -444 12 -474 16 -55 99 -138 154 -154 58 -17 890 -17 948 0 55 16 138
99 154 154 17 58 17 890 0 946 -6 22 -31 62 -55 88 -72 81 -69 80 -577 79
-291 -1 -453 -5 -476 -12z m960 -227 l0 -80 -80 0 -80 0 0 80 0 80 80 0 80 0
0 -80z m-316 -118 c91 -42 149 -100 194 -190 35 -72 37 -81 37 -172 0 -91 -2
-100 -37 -172 -45 -91 -103 -147 -196 -191 -61 -29 -76 -32 -162 -32 -86 0
-101 3 -160 31 -95 46 -153 101 -197 192 -36 72 -38 81 -38 171 0 87 3 102 32
163 40 85 97 147 172 186 78 42 122 52 213 48 61 -3 92 -11 142 -34z" fill="#C8203F"/>
<path d="M4160 3027 c-49 -16 -133 -102 -148 -153 -28 -94 -8 -169 63 -239
102 -103 243 -101 338 5 90 100 90 220 0 320 -65 72 -158 97 -253 67z" fill="#C8203F"/>
<path d="M265 1975 l-25 -24 0 -511 0 -511 25 -24 24 -25 751 0 751 0 24 25
25 24 0 228 c0 179 3 233 14 248 8 11 55 40 105 65 50 24 91 47 91 50 0 3 -41
26 -91 50 -50 25 -97 54 -105 65 -10 14 -14 57 -14 168 0 144 -1 149 -25 172
l-24 25 -751 0 -751 0 -24 -25z m1415 -215 l0 -80 -640 0 -640 0 0 80 0 80
640 0 640 0 0 -80z m-160 -320 l0 -80 -480 0 -480 0 0 80 0 80 480 0 480 0 0
-80z m160 -320 l0 -80 -640 0 -640 0 0 80 0 80 640 0 640 0 0 -80z" fill="#A3E7AD"/>
<path d="M2000 984 c0 -87 -18 -133 -75 -189 -70 -70 -92 -75 -350 -75 l-218
0 5 -91 c5 -78 11 -100 42 -163 43 -88 102 -146 194 -189 l67 -32 895 0 895 0
67 32 c93 44 151 100 196 191 l37 76 3 248 4 248 -881 0 -881 0 0 -56z m634
-116 c86 -26 166 -136 166 -228 0 -124 -116 -240 -240 -240 -124 0 -240 116
-240 240 0 63 23 114 75 165 70 71 145 90 239 63z" fill="#FFF"/>
<path d="M2505 695 c-50 -49 -15 -135 55 -135 41 0 80 39 80 80 0 41 -39 80
-80 80 -19 0 -40 -9 -55 -25z" fill="#FFF"/>
</g>
</svg>
