<?xml version="1.0" standalone="no"?>
<!DOCTYPE svg PUBLIC "-//W3C//DTD SVG 20010904//EN"
 "http://www.w3.org/TR/2001/REC-SVG-20010904/DTD/svg10.dtd">
<svg version="1.0" xmlns="http://www.w3.org/2000/svg"
 width="512.000000pt" height="512.000000pt" viewBox="0 0 512.000000 512.000000"
 preserveAspectRatio="xMidYMid meet">

<g transform="translate(0.000000,512.000000) scale(0.100000,-0.100000)"
fill="#000000" stroke="none">
<path d="M320 2560 l0 -2240 2240 0 2240 0 0 2240 0 2240 -2240 0 -2240 0 0
-2240z m3557 189 c97 -13 176 -45 258 -103 57 -41 145 -139 173 -192 14 -27
15 -27 -163 -144 l-139 -92 -29 34 c-96 112 -141 138 -247 138 -69 0 -136 -31
-167 -79 -27 -41 -32 -135 -8 -180 24 -48 91 -97 193 -143 484 -218 598 -307
669 -523 20 -64 26 -101 27 -185 2 -183 -40 -286 -165 -411 -136 -137 -265
-181 -524 -181 -118 0 -168 4 -237 20 -204 50 -376 166 -478 323 -22 35 -39
69 -38 76 2 7 77 55 167 108 150 87 165 94 176 78 34 -48 94 -115 130 -144
132 -106 332 -120 468 -32 73 46 97 149 55 233 -36 70 -90 102 -405 238 -192
83 -348 213 -414 346 -85 173 -78 404 19 561 78 127 229 230 375 254 75 13
214 13 304 0z m-997 -199 l0 -190 -290 0 -290 0 0 -825 0 -825 -210 0 -210 0
0 825 0 825 -290 0 -290 0 0 183 c0 101 3 187 7 190 3 4 359 7 790 7 l783 0 0
-190z" fill="#367BCC"/>
</g>
</svg>
