<?xml version="1.0" standalone="no"?>
<!DOCTYPE svg PUBLIC "-//W3C//DTD SVG 20010904//EN"
 "http://www.w3.org/TR/2001/REC-SVG-20010904/DTD/svg10.dtd">
<svg version="1.0" xmlns="http://www.w3.org/2000/svg"
 width="512.000000pt" height="512.000000pt" viewBox="0 0 512.000000 512.000000"
 preserveAspectRatio="xMidYMid meet">

<g transform="translate(0.000000,512.000000) scale(0.100000,-0.100000)"
fill="#000000" stroke="none">
<path d="M3525 3086 c-323 -62 -534 -310 -535 -628 -1 -341 167 -541 610 -731
276 -118 363 -170 404 -240 76 -129 20 -269 -130 -328 -48 -19 -78 -23 -164
-23 -128 -1 -210 24 -299 89 -53 39 -79 67 -156 168 l-20 26 -185 -107 c-102
-59 -191 -111 -198 -115 -10 -7 -7 -19 14 -55 78 -135 211 -260 353 -331 299
-151 731 -147 998 10 90 53 192 160 235 249 89 181 89 450 1 624 -93 185 -246
295 -653 471 -198 85 -271 131 -307 192 -64 109 -29 238 81 296 32 17 58 22
122 22 70 0 88 -4 139 -30 54 -28 82 -56 155 -154 15 -20 20 -17 188 93 95 62
177 117 183 123 14 14 -63 128 -140 203 -75 74 -170 128 -281 160 -96 28 -312
36 -415 16z" fill="#D9D933"/>
<path d="M2108 2203 c-3 -832 -4 -891 -21 -935 -25 -64 -81 -113 -146 -127
-155 -33 -250 9 -346 154 -31 47 -60 83 -63 81 -4 -2 -72 -38 -152 -81 -80
-43 -164 -89 -187 -102 l-43 -24 24 -47 c126 -248 382 -392 696 -392 371 1
607 164 696 480 17 60 19 130 22 973 l3 907 -240 0 -240 0 -3 -887z" fill="#D9D933"/>
</g>
</svg>
