<?xml version="1.0" standalone="no"?>
<!DOCTYPE svg PUBLIC "-//W3C//DTD SVG 20010904//EN"
 "http://www.w3.org/TR/2001/REC-SVG-20010904/DTD/svg10.dtd">
<svg version="1.0" xmlns="http://www.w3.org/2000/svg"
 width="512.000000pt" height="512.000000pt" viewBox="0 0 512.000000 512.000000"
 preserveAspectRatio="xMidYMid meet">

<g transform="translate(0.000000,512.000000) scale(0.100000,-0.100000)"
fill="#000000" stroke="none">
<path d="M2915 4917 c-1 -102 -4 -131 -23 -178 -56 -142 -155 -252 -396 -444
-188 -149 -267 -223 -320 -300 -53 -74 -66 -111 -66 -186 0 -123 79 -256 265
-448 66 -68 132 -132 148 -143 l27 -20 -29 51 c-17 28 -55 85 -84 128 -151
215 -185 333 -138 467 37 105 108 190 281 336 244 206 362 369 400 555 19 92
-4 224 -49 284 -15 19 -16 13 -16 -102z" fill="#D97733"/>
<path d="M3180 4315 c-133 -48 -322 -145 -405 -208 -87 -66 -159 -154 -186
-227 -17 -45 -20 -71 -17 -140 6 -107 30 -166 116 -279 35 -46 70 -99 78 -117
28 -67 15 -144 -39 -223 l-30 -44 49 34 c127 87 197 192 197 294 0 68 -10 93
-88 205 -29 41 -63 95 -75 120 -30 59 -31 140 -2 196 48 94 200 226 402 349
102 63 120 75 105 75 -6 -1 -53 -16 -105 -35z" fill="#D97733"/>
<path d="M3430 3188 c-19 -5 -42 -16 -50 -24 -13 -14 -12 -14 15 -7 145 39
285 -56 285 -195 0 -113 -124 -262 -306 -369 -49 -29 -84 -53 -77 -53 19 0
185 61 238 87 28 14 78 45 113 70 211 149 226 371 34 470 -57 29 -72 33 -140
32 -43 0 -93 -5 -112 -11z" fill="#619BDF"/>
<path d="M1966 3154 c-97 -18 -274 -76 -341 -112 -39 -21 -50 -32 -50 -52 0
-76 286 -116 777 -107 339 5 573 30 750 78 45 12 166 83 128 75 -43 -10 -320
-45 -430 -56 -335 -32 -814 -31 -929 3 -118 34 -62 88 164 158 77 24 84 28 50
27 -22 0 -76 -6 -119 -14z"  fill="#619BDF"/>
<path d="M1935 2746 c-193 -91 -74 -191 270 -226 155 -16 438 -7 610 19 129
20 298 56 318 68 5 3 -8 15 -29 26 -21 10 -49 28 -61 39 -21 20 -22 20 -150
-1 -209 -34 -363 -44 -553 -37 -320 11 -404 37 -356 111 20 31 14 31 -49 1z" fill="#619BDF"/>
<path d="M2023 2376 c-223 -104 47 -246 469 -246 197 0 408 36 560 97 l37 15
-91 45 -92 44 -90 -15 c-228 -38 -384 -42 -606 -14 -119 15 -161 38 -140 78
13 25 16 25 -47 -4z" fill="#619BDF"/>
<path d="M1580 2129 c-164 -43 -300 -129 -286 -182 14 -58 228 -100 690 -137
164 -13 654 -13 811 0 419 35 776 124 851 213 30 36 30 48 0 76 l-23 22 5 -26
c24 -125 -444 -208 -1188 -209 -440 -1 -681 20 -846 75 -81 26 -102 42 -89 66
18 30 136 83 231 103 l89 19 -85 0 c-53 0 -113 -8 -160 -20z" fill="#619BDF"/>
<path d="M3800 1925 c-82 -99 -527 -203 -1010 -236 -221 -15 -697 -6 -874 15
-71 9 -131 15 -133 12 -7 -7 115 -35 217 -50 474 -69 1223 -32 1550 75 140 46
247 118 262 177 7 26 5 27 -12 7z" fill="#619BDF"/>
<path d="M1378 858 l-3 -543 -28 -47 c-15 -26 -49 -64 -75 -84 -26 -19 -47
-39 -47 -43 0 -14 64 -81 78 -81 8 0 41 17 73 38 99 64 146 134 164 243 6 38
10 267 10 562 l0 497 -85 0 -84 0 -3 -542z" fill="#D97733"/>
<path d="M1921 1130 c-36 -5 -96 -19 -134 -30 l-70 -21 7 -46 c3 -26 8 -48 9
-50 2 -2 39 6 82 17 91 23 192 26 238 6 55 -23 71 -50 75 -126 l4 -68 -78 -6
c-176 -14 -247 -38 -317 -105 -84 -80 -87 -243 -5 -317 87 -80 243 -80 364 1
29 18 55 31 58 28 3 -4 6 -21 6 -40 l0 -33 66 0 65 0 -3 318 c-3 317 -3 317
-28 362 -28 49 -74 85 -129 99 -60 16 -142 20 -210 11z m207 -522 l-3 -101
-60 -33 c-81 -45 -150 -47 -196 -6 -25 23 -33 38 -36 78 -11 112 59 160 235
163 l63 1 -3 -102z" fill="#D97733"/>
<path d="M3391 1129 c-36 -4 -96 -18 -134 -29 l-69 -21 6 -42 c4 -23 10 -45
14 -49 4 -3 39 2 77 12 84 22 193 25 238 6 55 -23 71 -50 75 -126 l4 -68 -78
-6 c-167 -14 -246 -38 -307 -95 -116 -107 -92 -308 43 -365 95 -39 211 -24
308 40 54 36 58 35 64 -16 3 -23 7 -25 66 -28 l63 -3 -3 318 c-3 303 -4 320
-24 358 -12 22 -30 48 -41 57 -55 50 -180 74 -302 57z m207 -521 l-3 -101 -60
-33 c-81 -45 -150 -47 -196 -6 -25 23 -33 38 -36 78 -11 112 59 160 235 163
l63 1 -3 -102z" fill="#D97733"/>
<path d="M2390 1118 c0 -2 53 -176 118 -388 l119 -385 100 -3 101 -3 45 108
c71 169 140 403 193 651 4 21 2 22 -79 22 l-84 0 -12 -72 c-21 -129 -61 -297
-103 -426 -41 -130 -48 -136 -63 -57 -6 34 -100 351 -151 508 l-16 47 -84 0
c-46 0 -84 -1 -84 -2z" fill="#D97733"/>
<path d="M3798 1090 c2 -16 6 -30 8 -30 2 0 4 14 4 30 0 17 -4 30 -8 30 -5 0
-7 -13 -4 -30z"/>
<path d="M3840 1088 c0 -36 4 -35 14 5 4 16 2 27 -4 27 -5 0 -10 -14 -10 -32z"/>
<path d="M3886 1104 c-3 -8 -2 -12 3 -9 5 3 12 -5 14 -17 3 -17 5 -14 6 10 1
33 -12 43 -23 16z"/>
<path d="M3866 1077 c3 -10 9 -15 12 -12 3 3 0 11 -7 18 -10 9 -11 8 -5 -6z"/>
</g>
</svg>
