<?xml version="1.0" standalone="no"?>
<!DOCTYPE svg PUBLIC "-//W3C//DTD SVG 20010904//EN"
 "http://www.w3.org/TR/2001/REC-SVG-20010904/DTD/svg10.dtd">
<svg version="1.0" xmlns="http://www.w3.org/2000/svg"
 width="512.000000pt" height="512.000000pt" viewBox="0 0 512.000000 512.000000"
 preserveAspectRatio="xMidYMid meet">

<g transform="translate(0.000000,512.000000) scale(0.100000,-0.100000)"
fill="#000000" stroke="none">
<path d="M2362 5098 c-5 -13 -24 -66 -42 -118 -18 -52 -37 -100 -42 -107 -5
-6 -38 -23 -74 -37 l-65 -26 -120 57 -120 57 -136 -136 -135 -135 35 -69 c19
-38 45 -93 57 -121 l22 -53 -28 -69 -28 -69 -126 -45 -125 -45 0 -188 0 -189
125 -46 125 -47 29 -70 29 -71 -56 -118 -56 -118 132 -132 c72 -73 137 -133
145 -133 7 0 57 23 112 50 55 28 110 50 122 50 13 -1 49 -13 82 -28 l58 -27
43 -120 42 -120 193 0 193 0 42 120 43 120 58 27 c33 15 69 27 81 28 12 0 68
-22 124 -50 56 -27 107 -50 113 -50 6 0 71 60 143 133 l132 132 -56 118 -56
118 29 71 29 71 119 43 c65 23 122 46 127 51 5 5 8 92 7 193 l-3 183 -125 45
-126 45 -28 68 -28 69 22 53 c12 28 38 83 57 121 l35 69 -136 135 -135 136
-120 -58 -120 -57 -63 26 c-35 15 -68 32 -74 38 -7 7 -30 64 -52 127 l-40 115
-191 3 c-191 2 -191 2 -199 -20z m318 -225 c18 -53 41 -104 49 -112 9 -9 71
-38 137 -64 l120 -49 103 48 102 47 60 -60 61 -60 -46 -98 c-25 -54 -46 -103
-46 -109 0 -6 23 -67 52 -135 58 -137 41 -122 191 -175 l77 -28 0 -85 0 -84
-32 -13 c-18 -7 -67 -25 -109 -40 l-76 -27 -53 -130 -53 -130 42 -92 c24 -51
45 -99 47 -107 3 -9 -19 -39 -54 -73 l-58 -58 -105 49 -104 49 -132 -55 -132
-54 -27 -82 c-46 -141 -42 -136 -134 -136 -92 0 -88 -5 -134 136 l-27 82 -132
54 -132 54 -104 -48 -104 -49 -59 58 c-35 34 -57 64 -54 73 2 8 23 56 47 107
l42 92 -53 130 -53 130 -76 27 c-42 15 -91 33 -108 40 l-33 13 0 84 0 85 78
28 c149 53 132 38 190 175 29 68 52 129 52 135 0 6 -21 55 -46 109 l-46 98 60
60 61 60 104 -47 104 -48 127 53 c142 58 135 51 181 187 l28 82 87 0 87 0 33
-97z" fill="#DA7623"/>
<path d="M2471 4439 c-131 -26 -260 -128 -322 -254 -33 -68 -34 -74 -34 -190
0 -114 2 -123 32 -188 38 -80 122 -173 191 -210 136 -74 308 -74 444 0 69 38
153 130 191 210 27 59 32 81 35 168 3 82 0 111 -17 159 -78 221 -296 349 -520
305z m225 -172 c146 -74 211 -253 143 -398 -55 -117 -152 -179 -279 -179 -127
0 -224 62 -279 179 -33 72 -35 173 -4 242 37 84 113 151 203 180 49 16 162 4
216 -24z" fill="#DA7623"/>
<path d="M582 4319 c-149 -29 -254 -160 -257 -319 -1 -65 -16 -124 -110 -435
-67 -221 -118 -372 -132 -390 -12 -17 -35 -58 -50 -90 -23 -50 -27 -74 -27
-145 0 -74 4 -93 30 -150 30 -64 69 -112 131 -160 27 -21 51 -71 147 -305 64
-153 116 -284 116 -290 0 -6 -13 -18 -28 -27 -60 -36 -101 -127 -102 -225 0
-28 -5 -43 -12 -43 -7 0 -40 -13 -73 -28 -76 -36 -155 -121 -187 -200 l-23
-57 0 -575 c0 -540 1 -578 19 -626 39 -106 124 -191 230 -230 50 -18 114 -19
2306 -19 2192 0 2256 1 2306 19 106 39 191 124 230 230 18 48 19 86 19 626 l0
575 -23 57 c-32 79 -111 164 -187 200 -33 15 -66 28 -72 28 -8 0 -13 15 -13
43 -1 98 -42 189 -102 225 -15 9 -28 21 -28 27 0 6 52 137 116 290 96 234 120
284 147 305 62 48 101 96 131 160 26 57 30 76 30 150 0 90 -22 158 -77 232
-15 21 -62 161 -132 393 -94 310 -109 370 -110 435 -3 167 -110 292 -274 321
-140 25 -296 -64 -347 -197 l-16 -43 -122 -3 -121 -3 -3 -72 -3 -73 124 0 123
0 22 -52 c25 -61 72 -115 131 -152 28 -18 41 -33 41 -49 0 -12 11 -150 25
-305 23 -259 23 -287 10 -339 -17 -65 -19 -111 -5 -167 l9 -40 -262 -388
c-242 -358 -265 -389 -299 -399 -91 -29 -158 -126 -158 -231 l0 -58 -1110 0
-1110 0 0 58 c0 105 -67 202 -158 231 -34 10 -58 42 -299 399 l-262 388 9 40
c14 56 12 102 -5 167 -13 52 -13 80 10 339 14 155 25 293 25 305 0 16 16 32
54 58 57 37 107 101 126 161 l12 34 124 0 125 0 -3 73 -3 72 -121 3 -122 3
-16 43 c-35 90 -121 165 -223 191 -63 16 -77 17 -141 4z m131 -153 c38 -16 94
-76 103 -112 12 -47 -2 -121 -29 -157 -77 -102 -242 -86 -297 29 -70 144 76
302 223 240z m3837 -6 c165 -84 110 -330 -74 -330 -96 0 -165 60 -174 150 -6
65 2 93 40 136 57 65 135 81 208 44z m-3988 -467 c69 -19 66 -2 43 -248 -8
-88 -15 -168 -15 -177 0 -15 -7 -13 -57 10 -47 22 -76 27 -151 30 -65 3 -92 7
-89 15 2 7 32 104 67 217 34 113 64 208 66 212 3 4 21 -4 42 -18 20 -14 63
-32 94 -41z m4198 -153 c35 -113 65 -210 67 -217 3 -8 -24 -12 -89 -15 -75 -3
-104 -8 -150 -30 -51 -23 -58 -25 -58 -10 0 9 -7 89 -15 177 -23 245 -26 229
43 248 31 9 73 27 92 40 19 13 38 21 42 18 3 -3 34 -98 68 -211z m-4325 -381
c55 -14 122 -70 146 -123 22 -48 25 -133 6 -179 -67 -159 -277 -192 -386 -60
-101 122 -47 304 105 358 48 17 73 18 129 4z m4413 -18 c128 -65 162 -234 70
-346 -106 -128 -318 -96 -382 57 -21 50 -20 134 3 184 22 49 90 109 139 123
50 14 123 6 170 -18z m-3990 -761 c111 -164 205 -306 208 -314 5 -14 -21 -16
-238 -16 l-243 0 -103 248 c-56 137 -102 254 -102 260 0 7 13 12 28 12 51 0
127 29 182 69 30 22 57 40 60 40 3 0 96 -134 208 -299z m3668 260 c59 -41 135
-70 186 -70 15 0 28 -5 28 -12 0 -6 -46 -123 -102 -260 l-103 -248 -243 0
c-214 0 -243 2 -238 15 5 14 408 614 413 615 1 0 28 -18 59 -40z m-3250 -761
c20 -20 26 -37 27 -75 l2 -49 -427 -3 -428 -2 0 48 c0 52 19 88 54 102 11 5
184 8 383 7 l363 -2 26 -26z m3370 -2 c18 -22 24 -40 24 -78 l0 -49 -427 2
-428 3 2 48 c1 51 20 82 58 98 11 4 184 7 383 6 l364 -2 24 -28z m144 -278
c62 -13 126 -60 154 -114 21 -39 21 -51 21 -611 l0 -571 -30 -48 c-22 -36 -45
-57 -84 -77 l-53 -28 -2238 0 -2238 0 -53 28 c-39 20 -62 41 -84 77 l-30 48 0
571 c0 558 0 572 21 610 27 53 82 96 141 112 64 17 4393 20 4473 3z" fill="#FFF"/>
<path d="M1590 875 l0 -375 70 0 70 0 0 130 0 130 78 0 c75 0 79 -1 110 -33
39 -40 52 -81 52 -164 l0 -63 70 0 70 0 0 85 c0 89 -22 168 -56 206 -17 18
-16 21 9 47 59 61 81 158 55 243 -16 55 -73 118 -132 145 -47 22 -63 24 -223
24 l-173 0 0 -375z m357 210 c29 -20 46 -75 34 -107 -20 -53 -55 -68 -157 -68
l-94 0 0 95 0 95 98 0 c71 0 103 -4 119 -15z" fill="#DA7623"/>
<path d="M2290 876 l0 -376 70 0 70 0 0 129 0 128 109 5 c85 4 120 10 155 28
149 72 183 273 66 387 -64 62 -86 68 -287 71 l-183 3 0 -375z m365 200 c32
-32 40 -69 25 -107 -19 -45 -56 -59 -160 -59 l-90 0 0 95 0 95 100 0 c93 0
103 -2 125 -24z" fill="#DA7623"/>
<path d="M3184 1240 c-61 -19 -126 -73 -158 -130 l-31 -55 -3 -277 -3 -278 70
0 71 0 0 70 0 70 130 0 130 0 0 -70 0 -70 70 0 70 0 0 273 0 273 -26 52 c-44
88 -128 142 -229 148 -33 2 -74 -1 -91 -6z m150 -161 c46 -36 56 -69 56 -184
l0 -105 -130 0 -130 0 0 100 c0 112 12 155 55 188 38 30 112 30 149 1z" fill="#DA7623"/>
<path d="M380 875 l0 -75 70 0 70 0 0 75 0 75 -70 0 -70 0 0 -75z" fill="#FFF"/>
<path d="M780 875 l0 -75 70 0 70 0 0 75 0 75 -70 0 -70 0 0 -75z" fill="#FFF"/>
<path d="M1180 875 l0 -75 70 0 70 0 0 75 0 75 -70 0 -70 0 0 -75z" fill="#FFF"/>
<path d="M3800 875 l0 -75 70 0 70 0 0 75 0 75 -70 0 -70 0 0 -75z" fill="#FFF"/>
<path d="M4200 875 l0 -75 70 0 70 0 0 75 0 75 -70 0 -70 0 0 -75z" fill="#FFF"/>
<path d="M4600 875 l0 -75 70 0 70 0 0 75 0 75 -70 0 -70 0 0 -75z" fill="#FFF"/>
</g>
</svg>
