<?xml version="1.0" standalone="no"?>
<!DOCTYPE svg PUBLIC "-//W3C//DTD SVG 20010904//EN"
 "http://www.w3.org/TR/2001/REC-SVG-20010904/DTD/svg10.dtd">
<svg version="1.0" xmlns="http://www.w3.org/2000/svg"
 width="512.000000pt" height="512.000000pt" viewBox="0 0 512.000000 512.000000"
 preserveAspectRatio="xMidYMid meet">

<g transform="translate(0.000000,512.000000) scale(0.100000,-0.100000)"
fill="#000000" stroke="none">
<path d="M229 4916 c-99 -40 -157 -95 -202 -193 l-22 -48 0 -2115 0 -2115 26
-55 c39 -82 90 -135 167 -172 l67 -33 1402 -3 1402 -2 57 21 c81 31 174 123
203 202 19 52 21 79 21 267 l0 210 633 0 c391 0 657 4 696 11 195 31 352 166
417 359 18 52 19 98 19 780 l0 725 -23 66 c-61 176 -207 306 -387 344 -57 12
-186 15 -712 15 l-643 0 0 268 -1 267 -525 613 -525 612 -1007 0 -1007 0 -56
-24z m1893 -633 c3 -477 3 -489 25 -535 30 -66 70 -113 128 -153 88 -61 125
-65 537 -65 l368 0 0 -175 0 -175 -817 0 c-681 0 -830 -3 -888 -15 -202 -43
-367 -209 -405 -410 -8 -42 -10 -267 -8 -760 3 -697 3 -700 26 -759 32 -86 64
-136 127 -199 65 -64 115 -96 205 -129 l65 -23 848 -3 847 -3 0 -182 c0 -100
-5 -198 -10 -218 -14 -50 -72 -105 -125 -118 -60 -15 -2684 -15 -2738 0 -51
14 -104 63 -117 107 -8 26 -10 677 -8 2114 l3 2077 21 27 c28 39 66 65 105 74
19 4 433 8 921 9 l887 1 3 -487z m578 -78 c211 -247 392 -460 404 -473 l20
-23 -355 3 -356 3 -37 29 c-79 60 -76 40 -76 511 0 231 4 415 9 410 4 -6 180
-212 391 -460z m2042 -1243 c74 -36 129 -91 168 -168 l25 -49 3 -690 c3 -750
4 -740 -53 -830 -39 -62 -83 -100 -155 -134 l-55 -26 -1585 0 -1585 0 -57 27
c-75 35 -138 94 -174 165 l-29 58 0 715 0 715 25 50 c46 94 121 158 225 191
32 10 361 12 1610 11 l1570 -2 67 -33z" fill="#FFF"/>
<path d="M1874 2640 c-126 -25 -237 -128 -270 -251 -45 -172 32 -334 195 -412
61 -29 72 -31 227 -36 176 -7 191 -11 237 -73 39 -52 39 -154 0 -206 -46 -61
-63 -67 -214 -70 -126 -3 -144 -1 -184 18 -47 23 -84 70 -94 124 l-7 31 -87 3
c-100 3 -99 4 -73 -97 27 -98 94 -176 196 -225 65 -31 66 -31 230 -31 164 0
165 0 230 31 79 38 140 97 177 172 24 50 28 69 28 147 0 98 -17 151 -72 220
-31 40 -110 95 -163 115 -19 7 -107 15 -197 19 -142 5 -165 8 -190 27 -52 39
-73 81 -73 149 0 68 21 110 73 149 25 19 44 21 175 24 138 2 150 1 187 -20 42
-25 85 -88 85 -125 0 -22 3 -23 91 -23 l92 0 -7 47 c-19 143 -138 265 -286
293 -62 12 -247 11 -306 0z" fill="#23BBDA"/>
<path d="M2932 2640 c-105 -22 -205 -102 -251 -200 l-26 -55 0 -355 0 -355 28
-57 c37 -75 98 -134 176 -171 60 -28 73 -30 210 -35 84 -2 165 1 191 7 l45 10
77 -77 78 -76 60 59 60 59 -65 66 c-36 36 -65 69 -65 73 0 4 11 24 25 45 50
76 55 112 55 447 0 338 -6 382 -56 458 -40 60 -82 96 -154 130 -61 29 -71 31
-205 33 -77 2 -159 -1 -183 -6z m345 -196 c15 -11 38 -36 51 -54 22 -32 22
-38 22 -347 0 -259 -3 -320 -15 -350 l-16 -37 -124 124 -125 125 -60 -60 -60
-60 97 -98 98 -98 -107 3 c-117 3 -142 13 -185 77 -30 44 -35 114 -31 416 3
279 6 292 60 342 40 37 67 43 220 40 131 -2 150 -4 175 -23z" fill="#23BBDA"/>
<path d="M3710 2030 l0 -620 440 0 440 0 0 90 0 90 -355 0 -355 0 0 530 0 530
-85 0 -85 0 0 -620z" fill="#23BBDA"/>
</g>
</svg>
