<?xml version="1.0" standalone="no"?>
<!DOCTYPE svg PUBLIC "-//W3C//DTD SVG 20010904//EN"
 "http://www.w3.org/TR/2001/REC-SVG-20010904/DTD/svg10.dtd">
<svg version="1.0" xmlns="http://www.w3.org/2000/svg"
 width="512.000000pt" height="512.000000pt" viewBox="0 0 512.000000 512.000000"
 preserveAspectRatio="xMidYMid meet">

<g transform="translate(0.000000,512.000000) scale(0.100000,-0.100000)"
fill="#000000" stroke="none">
<path d="M1939 4791 c-65 -25 -105 -58 -143 -116 -47 -71 -56 -122 -56 -309
l0 -165 -752 -3 -753 -3 -51 -23 c-64 -29 -126 -92 -156 -157 l-23 -50 -3
-719 c-3 -796 -4 -783 61 -868 48 -63 114 -104 190 -117 90 -16 4524 -16 4614
0 76 13 142 54 190 117 65 85 64 72 61 868 l-3 719 -23 50 c-30 65 -92 128
-156 157 l-51 23 -752 3 -753 3 0 165 c0 91 -5 186 -12 212 -15 61 -69 143
-116 175 -82 58 -75 57 -696 57 -524 -1 -575 -2 -617 -19z m1169 -192 c56 -19
62 -40 62 -229 l0 -170 -610 0 -610 0 0 173 c0 187 5 204 60 226 36 14 1058
14 1098 0z m-446 -1762 c113 -62 132 -235 36 -324 -74 -69 -202 -69 -276 0
-94 87 -78 258 30 321 67 40 142 41 210 3z" fill="#FFD700"/>
<path d="M3 1425 l2 -890 23 -48 c34 -68 102 -132 167 -156 l56 -21 2309 0
2309 0 56 21 c65 24 133 88 167 156 l23 48 2 890 c1 691 -1 881 -10 849 -27
-94 -105 -176 -198 -209 -63 -23 -4635 -23 -4698 0 -93 33 -171 115 -198 209
-9 32 -11 -158 -10 -849z" fill="#FFF"/>
</g>
</svg>
