<?xml version="1.0" standalone="no"?>
<!DOCTYPE svg PUBLIC "-//W3C//DTD SVG 20010904//EN"
 "http://www.w3.org/TR/2001/REC-SVG-20010904/DTD/svg10.dtd">
<svg version="1.0" xmlns="http://www.w3.org/2000/svg"
 width="512.000000pt" height="512.000000pt" viewBox="0 0 512.000000 512.000000"
 preserveAspectRatio="xMidYMid meet">

<g transform="translate(0.000000,512.000000) scale(0.100000,-0.100000)"
fill="#000000" stroke="none">
<path d="M2507 4938 c-14 -13 -115 -132 -226 -266 -219 -264 -226 -278 -176
-327 22 -23 32 -25 120 -25 l95 0 0 -295 0 -296 25 -24 c24 -25 26 -25 215
-25 189 0 191 0 215 25 l25 24 0 296 0 295 95 0 c88 0 98 2 120 25 50 49 43
63 -176 327 -111 134 -212 253 -226 266 -13 12 -37 22 -53 22 -16 0 -40 -10
-53 -22z m167 -320 c58 -70 106 -130 106 -133 0 -3 -20 -5 -45 -5 -35 0 -52
-6 -70 -25 l-25 -24 0 -296 0 -295 -80 0 -80 0 0 295 0 296 -25 24 c-19 19
-35 25 -70 25 -26 0 -45 4 -43 8 7 18 213 261 219 259 4 -1 54 -59 113 -129z" fill="#FFD700"/>
<path d="M185 3335 l-25 -24 0 -271 0 -271 25 -24 c24 -25 26 -25 215 -25 189
0 191 0 215 25 33 32 33 78 0 110 -23 24 -29 25 -160 25 l-135 0 0 215 c0 216
0 216 -25 240 -15 16 -36 25 -55 25 -19 0 -40 -9 -55 -25z" fill="#FFD700"/>
<path d="M825 3335 l-25 -24 0 -271 0 -271 25 -24 c24 -25 26 -25 215 -25 189
0 191 0 215 25 33 32 33 78 0 110 -23 24 -29 25 -160 25 l-135 0 0 40 0 40 95
0 c88 0 98 2 120 25 33 32 33 78 0 110 -22 23 -32 25 -120 25 l-95 0 0 40 0
40 135 0 c131 0 137 1 160 25 16 15 25 36 25 55 0 19 -9 40 -25 55 -24 25 -26
25 -215 25 -189 0 -191 0 -215 -25z" fill="#FFD700"/>
<path d="M1465 3335 c-25 -24 -25 -26 -25 -217 l0 -192 103 -103 c138 -138
136 -138 274 0 l103 103 0 192 c0 191 0 193 -25 217 -15 16 -36 25 -55 25 -19
0 -40 -9 -55 -25 -24 -24 -25 -28 -25 -183 l0 -158 -40 -39 -40 -39 -40 39
-40 39 0 158 c0 155 -1 159 -25 183 -15 16 -36 25 -55 25 -19 0 -40 -9 -55
-25z" fill="#FFD700"/>
<path d="M2105 3335 l-25 -24 0 -271 0 -271 25 -24 c24 -25 26 -25 215 -25
189 0 191 0 215 25 33 32 33 78 0 110 -23 24 -29 25 -160 25 l-135 0 0 40 0
40 95 0 c88 0 98 2 120 25 16 15 25 36 25 55 0 19 -9 40 -25 55 -22 23 -32 25
-120 25 l-95 0 0 40 0 40 135 0 c131 0 137 1 160 25 16 15 25 36 25 55 0 19
-9 40 -25 55 -24 25 -26 25 -215 25 -189 0 -191 0 -215 -25z" fill="#FFD700"/>
<path d="M2745 3335 l-25 -24 0 -271 0 -271 25 -24 c24 -25 26 -25 215 -25
189 0 191 0 215 25 16 15 25 36 25 55 0 19 -9 40 -25 55 -23 24 -29 25 -160
25 l-135 0 0 215 c0 216 0 216 -25 240 -15 16 -36 25 -55 25 -19 0 -40 -9 -55
-25z" fill="#FFD700"/>
<path d="M3865 3335 l-25 -24 0 -271 0 -271 25 -24 c24 -25 26 -25 215 -25
189 0 191 0 215 25 l25 24 0 271 0 271 -25 24 c-15 16 -36 25 -55 25 -19 0
-40 -9 -55 -25 -25 -24 -25 -24 -25 -240 l0 -215 -80 0 -80 0 0 215 c0 216 0
216 -25 240 -15 16 -36 25 -55 25 -19 0 -40 -9 -55 -25z" fill="#FFD700"/>
<path d="M4505 3335 l-25 -24 0 -271 0 -271 25 -24 c15 -16 36 -25 55 -25 19
0 40 9 55 25 23 22 25 32 25 120 l0 95 135 0 c131 0 137 1 160 25 24 23 25 28
25 175 0 147 -1 152 -25 175 -24 25 -26 25 -215 25 -189 0 -191 0 -215 -25z
m295 -175 l0 -40 -80 0 -80 0 0 40 0 40 80 0 80 0 0 -40z" fill="#FFD700"/>
<path d="M1625 2375 c-21 -20 -25 -34 -25 -80 l0 -55 -55 0 c-67 0 -105 -29
-105 -80 0 -51 38 -80 105 -80 l55 0 0 -55 c0 -67 29 -105 80 -105 51 0 80 38
80 105 l0 55 55 0 c67 0 105 29 105 80 0 51 -38 80 -105 80 l-55 0 0 55 c0 67
-29 105 -80 105 -19 0 -40 -9 -55 -25z" fill="#FFD700"/>
<path d="M2436 2389 c-79 -19 -161 -67 -223 -131 -115 -120 -133 -184 -133
-468 0 -114 5 -222 11 -243 14 -53 70 -111 141 -149 33 -18 62 -37 64 -42 2
-6 -1 -62 -8 -125 l-13 -114 -58 -14 c-98 -22 -184 -71 -262 -148 -85 -85
-126 -158 -161 -291 -14 -55 -45 -167 -70 -250 -24 -83 -44 -163 -44 -178 0
-15 11 -38 25 -51 l24 -25 831 0 831 0 24 25 c32 31 31 45 -4 169 -16 55 -36
127 -45 158 -19 66 -48 98 -88 98 -38 0 -78 -40 -78 -77 0 -15 12 -66 25 -112
14 -47 25 -89 25 -93 0 -4 -310 -8 -690 -8 -379 0 -690 4 -690 8 0 4 16 63 35
131 20 67 40 146 45 174 31 159 156 287 314 319 l54 10 107 -81 c73 -55 117
-81 135 -81 18 0 62 26 135 81 l107 81 54 -10 c76 -16 145 -54 210 -117 66
-63 99 -71 139 -30 40 39 33 77 -22 137 -80 86 -212 158 -313 170 -27 3 -27 5
-44 175 l-7 71 65 37 c77 43 131 99 145 152 6 21 11 129 11 243 0 283 -18 348
-131 466 -67 69 -129 106 -214 129 -64 16 -197 18 -259 4z m277 -183 c68 -33
120 -90 147 -163 18 -47 20 -78 20 -251 0 -143 -3 -203 -12 -214 -7 -9 -62
-43 -123 -75 -106 -56 -113 -58 -185 -58 -71 0 -81 3 -180 53 -58 30 -113 63
-122 74 -16 18 -18 44 -18 219 0 178 2 204 21 256 28 73 96 143 170 172 79 31
204 26 282 -13z m-39 -996 c4 -41 9 -88 11 -105 5 -27 -1 -34 -60 -78 l-65
-47 -65 47 c-59 44 -65 51 -60 78 2 17 7 64 11 105 l6 75 108 0 108 0 6 -75z" fill="#FFF"/>
<path d="M3385 2135 c-21 -20 -25 -34 -25 -80 l0 -55 -55 0 c-67 0 -105 -29
-105 -80 0 -51 38 -80 105 -80 l55 0 0 -55 c0 -67 29 -105 80 -105 51 0 80 38
80 105 l0 55 55 0 c67 0 105 29 105 80 0 51 -38 80 -105 80 l-55 0 0 55 c0 67
-29 105 -80 105 -19 0 -40 -9 -55 -25z"  fill="#FFD700"/>
<path d="M960 1907 c-49 -16 -133 -102 -148 -153 -28 -94 -8 -169 63 -239 102
-103 243 -101 338 5 93 103 90 228 -8 325 -70 71 -152 91 -245 62z m135 -172
c16 -15 25 -36 25 -55 0 -19 -9 -40 -25 -55 -15 -16 -36 -25 -55 -25 -19 0
-40 9 -55 25 -16 15 -25 36 -25 55 0 19 9 40 25 55 15 16 36 25 55 25 19 0 40
-9 55 -25z" fill="#FFF"/>
<path d="M3945 1575 c-21 -20 -25 -34 -25 -80 l0 -55 -55 0 c-67 0 -105 -29
-105 -80 0 -51 38 -80 105 -80 l55 0 0 -55 c0 -67 29 -105 80 -105 51 0 80 38
80 105 l0 55 55 0 c67 0 105 29 105 80 0 51 -38 80 -105 80 l-55 0 0 55 c0 67
-29 105 -80 105 -19 0 -40 -9 -55 -25z"  fill="#FFD700"/>
<path d="M1385 1175 c-21 -20 -25 -34 -25 -80 l0 -55 -55 0 c-67 0 -105 -29
-105 -80 0 -51 38 -80 105 -80 l55 0 0 -55 c0 -67 29 -105 80 -105 51 0 80 38
80 105 l0 55 55 0 c67 0 105 29 105 80 0 51 -38 80 -105 80 l-55 0 0 55 c0 67
-29 105 -80 105 -19 0 -40 -9 -55 -25z"  fill="#FFD700"/>
<path d="M3760 787 c-49 -16 -133 -102 -148 -153 -28 -94 -8 -169 63 -239 101
-102 229 -102 330 0 98 97 101 222 8 325 -65 72 -158 97 -253 67z m135 -172
c50 -49 15 -135 -55 -135 -41 0 -80 39 -80 80 0 41 39 80 80 80 19 0 40 -9 55
-25z" fill="#FFF"/>
</g>
</svg>
