<?xml version="1.0" standalone="no"?>
<!DOCTYPE svg PUBLIC "-//W3C//DTD SVG 20010904//EN"
 "http://www.w3.org/TR/2001/REC-SVG-20010904/DTD/svg10.dtd">
<svg version="1.0" xmlns="http://www.w3.org/2000/svg"
 width="512.000000pt" height="512.000000pt" viewBox="0 0 512.000000 512.000000"
 preserveAspectRatio="xMidYMid meet">

<g transform="translate(0.000000,512.000000) scale(0.100000,-0.100000)"
fill="#000000" stroke="none">
<path d="M4675 5113 c-386 -32 -813 -132 -1149 -268 l-68 -28 678 -679 679
-678 21 48 c38 85 122 338 158 474 62 239 97 444 117 693 14 174 4 231 -54
307 -88 116 -182 148 -382 131z" fill="#B94905"/>
<path d="M3255 4719 c-454 -232 -946 -667 -1357 -1199 -324 -420 -603 -937
-712 -1318 -58 -203 -61 -182 43 -286 l89 -89 99 100 c54 55 124 116 156 137
260 168 502 204 600 87 73 -88 57 -262 -43 -461 -56 -112 -109 -182 -208 -278
l-97 -92 90 -91 c105 -105 84 -102 284 -44 374 107 844 357 1267 672 536 400
970 880 1238 1368 l66 120 -708 708 c-389 389 -712 707 -717 707 -6 0 -46 -18
-90 -41z m165 -875 c203 -59 364 -222 426 -429 24 -81 24 -239 0 -320 -62
-209 -223 -370 -431 -431 -81 -24 -239 -24 -320 0 -234 69 -402 257 -442 495
-14 85 -14 103 0 189 43 268 253 474 522 516 52 8 189 -3 245 -20z" fill="#FFF"/>
<path d="M879 3515 c-71 -18 -155 -55 -216 -96 -26 -18 -175 -159 -331 -313
-317 -314 -340 -345 -329 -437 7 -58 36 -110 77 -139 26 -19 898 -260 940
-260 10 0 27 36 54 112 106 307 337 727 585 1063 l51 70 -172 6 c-307 11 -598
9 -659 -6z" fill="#B94905"/>
<path d="M1860 2084 c-89 -30 -197 -88 -279 -150 -63 -47 -222 -230 -419 -480
-347 -441 -501 -709 -426 -738 25 -10 108 23 204 79 267 158 896 655 994 786
103 137 176 310 176 417 0 51 -4 63 -26 86 -23 22 -35 26 -88 26 -39 0 -89
-10 -136 -26z" fill="#B94905"/>
<path d="M943 1910 c-58 -35 -79 -110 -49 -168 8 -15 55 -67 104 -115 l89 -89
83 102 83 102 -79 80 c-44 44 -91 86 -106 94 -38 20 -87 17 -125 -6z" fill="#B94905"/>
<path d="M3430 1699 c-125 -92 -348 -238 -480 -314 -200 -116 -540 -272 -653
-301 -16 -3 -31 -12 -34 -19 -6 -18 234 -919 258 -967 30 -59 89 -93 163 -93
39 0 74 6 97 18 54 27 616 599 657 669 18 31 45 89 60 130 24 67 26 88 29 258
2 102 0 297 -4 433 l-8 248 -85 -62z" fill="#B94905"/>
<path d="M776 1591 c-26 -16 -68 -45 -93 -66 -110 -92 -267 -398 -491 -960
-62 -154 -76 -200 -76 -245 -1 -114 90 -205 204 -204 123 1 910 345 1107 484
77 53 132 115 173 193 l25 47 -89 89 -89 89 -96 -72 c-137 -103 -212 -154
-327 -225 -133 -81 -209 -111 -278 -111 -47 0 -60 4 -91 31 -20 18 -39 47 -45
68 -26 98 72 289 317 617 l91 121 -87 87 c-47 47 -91 86 -96 86 -6 0 -32 -13
-59 -29z" fill="#FFD700"/>
<path d="M1662 1191 c-40 -33 -84 -69 -99 -81 l-27 -21 90 -90 c98 -100 127
-119 176 -119 88 0 156 106 117 183 -11 22 -169 187 -179 187 -3 0 -38 -27
-78 -59z" fill="#B94905"/>
</g>
</svg>
