<svg xmlns="http://www.w3.org/2000/svg" data-name="Layer 1" width="408.45707" height="588.76601" viewBox="0 0 408.45707 588.76601" xmlns:xlink="http://www.w3.org/1999/xlink">
<path d="M825.27391,532.49994a6.48017,6.48017,0,0,0-1.40067-8.92922,6.217,6.217,0,0,0-.87885-.53275l2.90487-44.11606-14.77963,2.56172,3.2945,44.88249a6.46217,6.46217,0,0,0,2.11669,7.60009,6.18428,6.18428,0,0,0,8.6445-1.328Q825.22556,532.56977,825.27391,532.49994Z" transform="translate(-195.77147 -155.61699)" fill="#a0616a"/><polygon points="721.93 577.344 712.029 577.343 707.319 539.153 721.932 539.154 721.93 577.344" fill="#a0616a"/><path d="M918.04985,743.28979l-30.447-.00116v-.385A11.85149,11.85149,0,0,1,899.45366,731.053h.00073l5.56152-4.21924,10.37659,4.21991,2.65784.00006Z" transform="translate(-195.77147 -155.61699)" fill="#2f2e41"/><polygon points="700.003 562.585 691.544 567.73 667.673 537.549 680.158 529.956 700.003 562.585" fill="#a0616a"/><path d="M901.44007,726.84544,875.42669,742.6671l-.20008-.32894A11.85147,11.85147,0,0,1,879.193,726.0548l.00062-.00038,2.55891-6.495,11.05836-1.78716,2.27079-1.38116Z" transform="translate(-195.77147 -155.61699)" fill="#2f2e41"/><path d="M915.77147,513.92758s8.18443,16.26231,5,24,2.61167,67.6831-.69417,70.34155-5.4332.53109-.86952,5.09477,6.56369-.43632,5.56369,6.56368-7,96-7,96l-13.69417.34155s-17.30583-43.34155-14.30583-73.34155l-17.13026-82.61765s-2.469,14.72-2.66935,18.16883-2.20039,4.44882-3.20039,4.44882c-5.00486,0-3.46457-.88976-2.73229,4.05512s-8.22586,44.52516-8.22586,44.52516l29.95815,69.41972-10,10-51.81975-75.79807-9.93489-77.0602s-2.75464-7.73228,0-7.937,4.31369.66929,3.53416-2.26772,15.22048-51.937,15.22048-51.937Z" transform="translate(-195.77147 -155.61699)" fill="#2f2e41"/><path d="M920.77147,515.92758c-2.31,5.35-10.18.45-28,2-2.06.18-4.09.27-6.11.29-11.95.13-23.12-2.14-32.16-2.81-6.51-.49-11.92-.15-15.73,2.52-10,7-13.96-14.66-13.96-14.66a27.38489,27.38489,0,0,1,3.96-16.34c5-8,10.12-27.01,3-34s-7.88-17.99-5-21,12.34-63.2,11-73c-1.06-7.73,10.88-10.21,15.96-10.91,1.36-.19,2.23-.25,2.23-.25l11.81,2.16,17,3,13.69.26s.19.09.55.25a112.67431,112.67431,0,0,1,17.76,10.49c8.08,6.09,2.11,96.99,2.11,96.99s-1.11,27.07,4.89,33.01S923.08146,510.57755,920.77147,515.92758Z" transform="translate(-195.77147 -155.61699)" fill="#3f3d56"/><path d="M861.77147,353.74271l-23,1s-31,62-27,66,8.08634,1.72928,3.04317,6.86464-10.04317,3.13536-7.04317,7.13536,7-.501,3,5.24948-1.12373,51.93539-1.12373,51.93539h15.81789s11.18211-38.799,10.244-43.49195-1.06187-8.70409,0-10.1985S861.77147,353.74271,861.77147,353.74271Z" transform="translate(-195.77147 -155.61699)" fill="#3f3d56"/><circle cx="680.17323" cy="154.70429" r="23.0557" fill="#a0616a"/><path d="M893.91148,330.17758l-9.14,1.75s8.5-13.72,8-20c-.5-6.28-7.34-8.53-7.34-8.53s-3.79.82-7.78,1.28a20.0613,20.0613,0,0,0-1.85-3.85,6.71588,6.71588,0,0,1-1.96,4.14,10.93536,10.93536,0,0,1-4.33-.5c-1.58-.72-1.55-1.97-1.03-3.14a41.62385,41.62385,0,0,0-14.82,4.07,40.89906,40.89906,0,0,1,.35-9.2c.22-.06.44-.12994.66-.2a20.41435,20.41435,0,0,0,3.92-1.71,6.75162,6.75162,0,0,1-3.7-1.74c.84-2.46,2.18-4.59,4.29-5.63a15.81549,15.81549,0,0,1,13.13-.35s-4.88995-3.57-3.09-5.03c.12.12.24.23.37.34.17.14.36.29.54.43,1.11.9,2.77-.37,2.99-1.73a4.58525,4.58525,0,0,1,.1-.50995c.03-.14.07-.28.11-.41a3.39422,3.39422,0,0,1,.12-.34c3.33-.8,13.4,2.45,17.27,9.61C890.72148,288.92758,917.77147,301.92758,893.91148,330.17758Z" transform="translate(-195.77147 -155.61699)" fill="#3f3d56"/><path d="M892.23776,528.16514a6.48015,6.48015,0,0,1,5.31009-7.31407,6.21573,6.21573,0,0,1,1.025-.07453L916.059,480.16988l11.99554,9.00594-23.35533,38.46843a6.4622,6.4622,0,0,1-5.343,5.80472,6.18429,6.18429,0,0,1-7.09363-5.1158Q892.249,528.24934,892.23776,528.16514Z" transform="translate(-195.77147 -155.61699)" fill="#a0616a"/><path d="M894.27147,363.74271l23,1s34,58,30,62-8.08635,1.72928-3.04318,6.86464,10.04318,3.13536,7.04318,7.13536-7-.501-3,5.24948-28.5,59.93539-28.5,59.93539l-14-7s13.62372-35.799,14.56186-40.49195,1.06186-8.70409,0-10.1985S894.27147,363.74271,894.27147,363.74271Z" transform="translate(-195.77147 -155.61699)" fill="#3f3d56"/><path d="M899.01146,353.43759l-32.24,74.49-13.04-79.91c1.36-.19,2.23-.25,2.23-.25l5.55-10.78,31.79,1.65,5.16,14.55005S898.65147,353.27756,899.01146,353.43759Z" transform="translate(-195.77147 -155.61699)" fill="#6c63ff"/><path d="M886.66148,519.21756c-11.95.13-23.12-2.14-32.16-2.81l11.27-56.48Z" transform="translate(-195.77147 -155.61699)" fill="#6c63ff"/><path d="M748.55849,743.193a1.18647,1.18647,0,0,0,1.19006,1.19h253.29a1.19,1.19,0,0,0,0-2.38h-253.29A1.18651,1.18651,0,0,0,748.55849,743.193Z" transform="translate(-195.77147 -155.61699)" fill="#ccc"/></svg>